<?xml version="1.0" encoding="UTF-8"?>
<svg id="Layer_2" data-name="Layer 2" xmlns="http://www.w3.org/2000/svg" viewBox="0 0 900 140.23">
  <defs>
    <style>
      .cls-1 {
        fill: #fff;
      }
    </style>
  </defs>
  <g id="Layer_1-2" data-name="Layer 1">
    <g id="Artwork_14" data-name="Artwork 14">
      <g>
        <path class="cls-1" d="M479.22,55.19h-21.98c-11.51,0-14.62-2.74-14.62-11.37v-4.66c0-10.61,5.93-11.23,17.95-11.09,10.27,0,37.02.71,50.31,1.89V5.87C497.39,1.83,475.44-.48,449.68.08c-22.35.39-39.67,8.38-41,33.21,6.24,5.95,10.13,14.5,10.13,22.52v20.43c5.9,5.61,15.21,9.73,29.82,9.73h21.27c10.21,0,12.5,4.03,12.5,10.81v5.45c0,8.35-7,9.99-15.83,9.99-19.3,0-44.98-1.33-53.27-2.06v24.1c17.95,5.16,29.4,5.95,61.06,5.95,20.54,0,42.07-6.38,42.07-39.25v-7.84c-.03-15.12-6.69-37.92-37.22-37.92"/>
        <polygon class="cls-1" points="521.68 29.2 561.41 29.2 561.41 138.71 595.44 138.71 595.44 29.2 636.41 29.2 636.41 1.21 521.68 1.21 521.68 29.2"/>
        <path class="cls-1" d="M707.37.28c-34.85,0-61.88,6.21-61.88,70.62s24.55,68.56,61.88,68.56,61.76-7.9,61.76-68.56c0-64.42-25.87-70.62-61.76-70.62M707.37,111.48c-23.45,0-27.85-6.94-27.85-40.57,0-39.25,7.25-42.63,27.85-42.63s27.74,4.66,27.74,42.63c0,33.52-6.26,40.57-27.74,40.57"/>
        <path class="cls-1" d="M872.4,85.52c9.4-3.02,23.39-7.42,23.39-40.86S877.34,1.21,852.17,1.21h-67.07v137.5h34.03v-53.16l19.72,2.62,22.6,50.53h38.54l-27.6-53.19ZM848.28,61.9h-29.01V27.99h29.01c9.14,0,13.29,4.32,13.29,16.68-.03,13.57-2.96,17.24-13.29,17.24"/>
        <path class="cls-1" d="M35.95,101.72V.06H0v111.73c0,21.64,16.17,28.44,34.71,28.44h65.38v-28.55h-50.59c-6.32,0-13.54.17-13.54-9.96"/>
        <rect class="cls-1" x="116.76" y=".03" width="35.92" height="140.15"/>
        <path class="cls-1" d="M296.01,91v-35.19c0-1.24.14-2.29.31-3.1.54-4.51,2.2-9.03,4.71-13.04V.03h-35.92v82.14L209.42.03h-36.37v140.15h36.14V59.48l55.92,80.7h35.92v-32.87c-2.48-4.03-4.18-8.63-4.71-13.26-.17-.79-.31-1.81-.31-3.05"/>
        <path class="cls-1" d="M396.69,46.84c-.45-.51-.93-.93-1.44-1.33-.25-.2-.48-.39-.73-.62-.11-.11-.23-.2-.34-.28l-30.39-17.55c-1.61-.93-3.98-1.47-6.43-1.47s-4.83.54-6.43,1.47l-30.47,17.58c-.06.03-.14.14-.25.25-.23.2-.48.42-.71.62-.48.39-.96.82-1.41,1.33l39.3,20.77,39.3-20.77Z"/>
        <path class="cls-1" d="M314.21,55.08c-.03.31-.08.65-.17.96v34.73c.08.39.14.68.17.99.34,3.92,3.16,8.61,6.29,10.41l30.47,17.58c.71.42,1.58.73,2.51.99v-46.33l-39.05-20.63c-.11.45-.2.87-.23,1.3"/>
        <path class="cls-1" d="M363.84,119.75l30.47-17.58c3.44-1.98,6.43-7.19,6.43-11.15v-35.21c0-.65-.08-1.35-.25-2.09l-39.16,20.68v46.33c.93-.25,1.78-.59,2.51-.99"/>
      </g>
    </g>
  </g>
</svg>